<svg t="1659622733013" class="icon" viewBox="0 0 1024 1024" version="1.1" xmlns="http://www.w3.org/2000/svg" p-id="3062" width="200" height="200"><path d="M512.26624 640.83968a269.85472 269.85472 0 0 1-93.184-16.384 30.24896 30.24896 0 0 1 20.5824-56.90368 211.08736 211.08736 0 1 0-96.256-70.81984 30.2592 30.2592 0 1 1-48.41472 36.32128 272.15872 272.15872 0 1 1 217.27232 107.7248z m0 0" fill="#1F91F2" p-id="3063"></path><path d="M651.4176 790.34368H373.66784a30.26944 30.26944 0 1 1 0-60.52864h277.74976a30.26944 30.26944 0 0 1 0 60.52864z m0 0" fill="#1F91F2" p-id="3064"></path><path d="M512.88064 927.1296a29.96224 29.96224 0 0 1-30.2592-30.30016V634.79808a30.26944 30.26944 0 0 1 60.52864 0v262.03136a29.97248 29.97248 0 0 1-30.26944 30.30016z m0 0" fill="#1F91F2" p-id="3065"></path></svg>