<svg t="1659622765218" class="icon" viewBox="0 0 1024 1024" version="1.1" xmlns="http://www.w3.org/2000/svg" p-id="4117" width="200" height="200"><path d="M602.83904 458.00448A28.38528 28.38528 0 0 1 581.632 448.9216a30.5152 30.5152 0 0 1 0.60416-43.008l220.32384-213.6064a30.39232 30.39232 0 0 1 42.36288 43.58144L624.64 449.536a27.79136 27.79136 0 0 1-21.78048 8.46848z m0 0" fill="#FC7265" p-id="4118"></path><path d="M847.34976 448.9216a29.60384 29.60384 0 0 1-29.696-30.86336l2.42688-193.0752-193.66912-2.42688a29.61408 29.61408 0 0 1-29.696-30.86336 29.97248 29.97248 0 0 1 30.86336-29.63456L850.944 164.48512a29.60384 29.60384 0 0 1 29.696 30.8736l-2.42688 223.3344a31.27296 31.27296 0 0 1-30.86336 30.23872z m0 0M411.648 861.07136a270.91968 270.91968 0 0 1-93.184-17.55136 30.06464 30.06464 0 1 1 21.17632-56.32 224.256 224.256 0 0 0 72.63232 13.91616A211.57888 211.57888 0 1 0 244.56192 715.776a30.2592 30.2592 0 0 1-48.41472 36.32128 267.04896 267.04896 0 0 1-53.248-165.24288A272.384 272.384 0 1 1 411.648 861.07136z m0 0" fill="#FC7265" p-id="4119"></path></svg>