<svg t="1658595391539" class="icon" viewBox="0 0 1024 1024" version="1.1" xmlns="http://www.w3.org/2000/svg" p-id="11244" width="200" height="200"><path d="M372.6 111.8H141.2c-42.5 0.1-76.9 34.5-77 77v231.5c0.1 42.5 34.5 76.9 77 77h231.5c42.5-0.1 76.9-34.5 77-77V188.7c-0.2-42.5-34.6-76.9-77.1-76.9M937.4 250L773.7 86.4c-30.1-30-78.7-30-108.8 0L642.3 109l-141 141a76.744 76.744 0 0 0-22.5 54.3c-0.1 20.5 8 40.1 22.5 54.6l22.7 22.7L642.3 500l22.7 22.7c30.1 30 78.8 30 108.8 0l141-141 22.7-22.6c29.9-30.3 29.9-79-0.1-109.1M372.6 574.2H141.2c-42.5 0.1-76.9 34.5-77 77v231.5c0.1 42.5 34.5 76.9 77 77h231.5c42.5-0.1 76.9-34.5 77-77V651.1c-0.2-42.4-34.6-76.8-77.1-76.9m462.5 0H603.6c-42.5 0.1-76.9 34.5-77 77v231.5c0.1 42.5 34.5 76.9 77 77h231.5c42.5-0.1 76.9-34.5 77-77V651.1c-0.1-42.4-34.6-76.8-77-76.9" p-id="11245"></path></svg>
