<svg t="1658325876159" class="icon" viewBox="0 0 1096 1024" version="1.1" xmlns="http://www.w3.org/2000/svg" p-id="19271" width="200" height="200"><path d="M936.353367 536.030314H158.589091a45.001349 45.001349 0 0 0-44.730257 45.001348V921.794888A102.201859 102.201859 0 0 0 216.87397 1023.996747h662.278887A102.201859 102.201859 0 0 0 981.354716 921.794888V581.031662a45.001349 45.001349 0 0 0-45.001349-45.001348z m-260.519857 259.435487a135.546231 135.546231 0 0 1-256.45347 0 60.182527 60.182527 0 0 1-4.337479-15.452271 27.109246 27.109246 0 0 1 27.109246-27.109246c15.723363 0 28.464709 28.735801 28.464709 28.735801a81.327739 81.327739 0 0 0 151.540686 0s12.741346-28.735801 28.464709-28.735801a27.109246 27.109246 0 0 1 27.109246 27.109246 60.182527 60.182527 0 0 1-1.897647 15.723363z" fill="#FFA658" p-id="19272"></path><path d="M113.858834 644.467299h867.495882v54.218492h-867.495882z" fill="#FFE66D" opacity=".4" p-id="19273"></path><path d="M113.587742 590.248806h867.495881v54.218493h-867.495881z" fill="#FF9A26" opacity=".8" p-id="19274"></path><path d="M1054.549681 590.248806H42.019332a42.019332 42.019332 0 0 1-29.820171-71.56841L518.599882 12.279675a42.019332 42.019332 0 0 1 59.369249 0L1084.369852 518.680396a42.019332 42.019332 0 0 1-29.549079 71.56841z" fill="#FFA658" p-id="19275"></path></svg>