<svg t="1659436074921" class="icon" viewBox="0 0 1024 1024" version="1.1" xmlns="http://www.w3.org/2000/svg" p-id="3354" width="200" height="200"><path d="M543.068 550.101l62.319-32.75 85.503 162.7-62.318 32.75z" fill="#6C8CD5" p-id="3355"></path><path d="M736.3 955.2c-12.5 6.8-28.3 2.2-35.1-10.3L559.1 686.7c-6.8-12.4-2.2-28.2 10.2-35l102-55.6c12.5-6.8 28.3-2.2 35.1 10.3l142.1 258.3c6.8 12.4 2.2 28.2-10.2 35l-102 55.5zM180.1 284.4c7.2-30.1 19.5-59.5 37.1-87.1 85-132.8 261.8-171.6 394.9-86.6 105.6 67.3 152 192.1 124.4 307.1-7.2 30.1-19.5 59.5-37.2 87.1-85 132.8-261.8 171.6-394.9 86.6-105.5-67.3-151.9-192.1-124.3-307.1m75.4 18.1c-20.7 86.1 15.8 176.1 90.6 223.9 46.9 30 102.7 39.9 157.1 27.9C557.6 542.4 604 510 634 463.2c12.6-19.7 21.7-41 27.1-63.5 20.7-86.1-15.8-176.1-90.7-223.9-46.9-29.9-102.7-39.9-157.1-27.9-54.4 12-100.8 44.3-130.8 91.1-12.5 19.7-21.6 41-27 63.5z" fill="#FFAB00" p-id="3356"></path><path d="M610.2 292.6c-5.4 0-10.5-3.2-12.6-8.6-26.3-65.7-93.6-105.2-163.8-96-7.5 1-14.3-4.3-15.3-11.7-1-7.5 4.3-14.3 11.7-15.3 82.4-10.7 161.7 35.6 192.6 112.8 2.8 7-0.6 14.9-7.6 17.7-1.6 0.8-3.3 1.1-5 1.1z" fill="#6C8CD5" p-id="3357"></path></svg>